<?xml version="1.0" standalone="no"?><!DOCTYPE svg PUBLIC "-//W3C//DTD SVG 1.1//EN" "http://www.w3.org/Graphics/SVG/1.1/DTD/svg11.dtd"><svg t="1548242044764" class="icon" style="" viewBox="0 0 1024 1024" version="1.1" xmlns="http://www.w3.org/2000/svg" p-id="1760" xmlns:xlink="http://www.w3.org/1999/xlink" width="200" height="200"><defs><style type="text/css"></style></defs><path d="M224 272c-27.2 0-48-20.8-48-48s20.8-48 48-48 48 20.8 48 48-20.8 48-48 48z m576 0c-27.2 0-48-20.8-48-48s20.8-48 48-48 48 20.8 48 48-20.8 48-48 48zM512 864c-180.8 0-344-108.8-412.8-275.2-6.4-16 1.6-35.2 17.6-41.6 16-6.4 35.2 1.6 41.6 17.6C217.6 707.2 356.8 800 512 800c155.2 0 294.4-92.8 355.2-236.8 6.4-16 25.6-24 41.6-17.6 16 6.4 24 25.6 17.6 41.6C856 755.2 692.8 864 512 864z" p-id="1761"></path></svg>